<?xml version="1.0" standalone="no"?>
<!DOCTYPE svg PUBLIC "-//W3C//DTD SVG 20010904//EN"
 "http://www.w3.org/TR/2001/REC-SVG-20010904/DTD/svg10.dtd">
<svg version="1.0" xmlns="http://www.w3.org/2000/svg"
 width="260.000000pt" height="260.000000pt" viewBox="0 0 260.000000 260.000000"
 preserveAspectRatio="xMidYMid meet">
<metadata>
Created by potrace 1.11, written by Peter Selinger 2001-2013
</metadata>
<g transform="translate(0.000000,260.000000) scale(0.100000,-0.100000)"
fill="#000000" stroke="none">
<path d="M955 2569 c-33 -5 -79 -14 -102 -20 l-43 -12 0 -188 c0 -144 3 -189
13 -190 6 -1 21 -2 32 -3 11 0 49 7 85 17 187 51 268 55 347 16 74 -37 100
-87 138 -264 8 -39 18 -92 20 -120 5 -45 3 -53 -22 -81 -15 -17 -48 -55 -73
-85 -25 -29 -59 -69 -76 -89 -17 -19 -51 -66 -76 -105 -25 -38 -116 -178 -203
-310 -87 -132 -186 -283 -220 -335 -34 -52 -141 -214 -236 -360 -104 -158
-175 -276 -177 -293 l-2 -27 252 2 251 3 294 470 c162 259 306 494 321 524 26
51 78 118 86 110 2 -2 7 -26 10 -54 4 -27 16 -111 27 -185 11 -74 22 -153 24
-175 3 -22 7 -51 10 -65 3 -14 7 -45 10 -70 3 -25 7 -56 10 -70 5 -28 16 -105
30 -212 15 -118 45 -189 103 -243 61 -58 122 -68 362 -56 52 3 54 7 65 156 3
50 8 123 12 163 3 39 1 72 -3 72 -5 1 -49 2 -99 3 -148 5 -168 30 -210 262
-65 364 -85 472 -90 500 -37 213 -66 374 -69 390 -2 11 -10 54 -17 95 -7 41
-13 77 -14 80 -1 3 -5 28 -10 55 -4 28 -9 59 -11 70 -2 11 -8 45 -14 75 -6 30
-13 69 -15 85 -10 55 -47 169 -70 215 -58 114 -136 184 -252 227 -58 22 -88
26 -203 28 -74 1 -162 -1 -195 -6z"/>
</g>
</svg>
